<!-- Generated by IcoMoon.io -->
<svg version="1.1" xmlns="http://www.w3.org/2000/svg" width="12" height="14" viewBox="0 0 12 14">
<title>facebook-official</title>
<path fill="#fff" d="M11.336 1c0.367 0 0.664 0.297 0.664 0.664v10.672c0 0.367-0.297 0.664-0.664 0.664h-3.055v-4.648h1.555l0.234-1.812h-1.789v-1.156c0-0.523 0.141-0.875 0.898-0.875l0.953-0.008v-1.617c-0.164-0.023-0.734-0.070-1.391-0.070-1.383 0-2.336 0.844-2.336 2.391v1.336h-1.563v1.812h1.563v4.648h-5.742c-0.367 0-0.664-0.297-0.664-0.664v-10.672c0-0.367 0.297-0.664 0.664-0.664h10.672z"></path>
</svg>
