<!-- Generated by IcoMoon.io -->
<svg version="1.1" xmlns="http://www.w3.org/2000/svg" width="12" height="14" viewBox="0 0 12 14">
<title>google-plus-circle</title>
<path fill="#fff" d="M7.164 7.070c0-0.172-0.016-0.336-0.047-0.5h-2.828v1.031h1.695c-0.125 0.828-0.906 1.289-1.695 1.289-1.039 0-1.867-0.859-1.867-1.891s0.828-1.891 1.867-1.891c0.438 0 0.875 0.148 1.195 0.461l0.813-0.789c-0.555-0.516-1.25-0.781-2.008-0.781-1.664 0-3 1.344-3 3s1.336 3 3 3c1.727 0 2.875-1.219 2.875-2.93zM9.859 7.43h0.852v-0.859h-0.852v-0.859h-0.859v0.859h-0.859v0.859h0.859v0.859h0.859v-0.859zM12 7c0 3.313-2.687 6-6 6s-6-2.687-6-6 2.687-6 6-6 6 2.687 6 6z"></path>
</svg>
