<!-- Generated by IcoMoon.io -->
<svg version="1.1" xmlns="http://www.w3.org/2000/svg" width="12" height="14" viewBox="0 0 12 14">
<title>google-plus-square</title>
<path fill="#fff" d="M7.164 7.070c0-0.195-0.023-0.352-0.047-0.5h-2.828v1.031h1.695c-0.062 0.438-0.508 1.289-1.695 1.289-1.031 0-1.867-0.844-1.867-1.891s0.836-1.891 1.867-1.891c0.578 0 0.969 0.242 1.195 0.461l0.813-0.789c-0.523-0.484-1.203-0.781-2.008-0.781-1.664 0-3 1.344-3 3s1.336 3 3 3c1.727 0 2.875-1.219 2.875-2.93zM9.859 7.43h0.852v-0.859h-0.852v-0.859h-0.859v0.859h-0.859v0.859h0.859v0.859h0.859v-0.859zM12 3.25v7.5c0 1.242-1.008 2.25-2.25 2.25h-7.5c-1.242 0-2.25-1.008-2.25-2.25v-7.5c0-1.242 1.008-2.25 2.25-2.25h7.5c1.242 0 2.25 1.008 2.25 2.25z"></path>
</svg>
