<!-- Generated by IcoMoon.io -->
<svg version="1.1" xmlns="http://www.w3.org/2000/svg" width="24" height="28" viewBox="0 0 24 28">
<title>google-plus-circle</title>
<path fill="#fff" d="M14.328 14.141c0-0.344-0.031-0.672-0.094-1h-5.656v2.063h3.391c-0.25 1.656-1.813 2.578-3.391 2.578-2.078 0-3.734-1.719-3.734-3.781s1.656-3.781 3.734-3.781c0.875 0 1.75 0.297 2.391 0.922l1.625-1.578c-1.109-1.031-2.5-1.563-4.016-1.563-3.328 0-6 2.688-6 6s2.672 6 6 6c3.453 0 5.75-2.438 5.75-5.859zM19.719 14.859h1.703v-1.719h-1.703v-1.719h-1.719v1.719h-1.719v1.719h1.719v1.719h1.719v-1.719zM24 14c0 6.625-5.375 12-12 12s-12-5.375-12-12 5.375-12 12-12 12 5.375 12 12z"></path>
</svg>
