<?xml version="1.0" encoding="utf-8"?>
<!-- Generator: Adobe Illustrator 16.0.0, SVG Export Plug-In . SVG Version: 6.00 Build 0)  -->
<!DOCTYPE svg PUBLIC "-//W3C//DTD SVG 1.1//EN" "http://www.w3.org/Graphics/SVG/1.1/DTD/svg11.dtd">
<svg version="1.1" id="Layer_1" xmlns="http://www.w3.org/2000/svg" xmlns:xlink="http://www.w3.org/1999/xlink" x="0px" y="0px"
	 width="195.192px" height="74.228px" viewBox="334.714 288.103 195.192 74.228"
	 enable-background="new 334.714 288.103 195.192 74.228" xml:space="preserve">
<g>
	<g>
		<path fill="#999999" d="M401.924,350.909v-5.44h1.13l1.405,2.332c0.363,0.605,0.678,1.236,0.928,1.825h0.017
			c-0.065-0.727-0.089-1.429-0.089-2.261v-1.896h0.92v5.439h-1.025l-1.421-2.396c-0.347-0.591-0.71-1.261-0.977-1.873l-0.024,0.008
			c0.04,0.703,0.048,1.422,0.048,2.316v1.945H401.924L401.924,350.909z"/>
		<path fill="#999999" d="M408.126,349.224c0.024,0.709,0.582,1.017,1.211,1.017c0.46,0,0.791-0.064,1.09-0.179l0.146,0.688
			c-0.339,0.137-0.808,0.25-1.372,0.25c-1.275,0-2.026-0.791-2.026-1.994c0-1.09,0.662-2.115,1.921-2.115
			c1.283,0,1.695,1.051,1.695,1.914c0,0.187-0.016,0.33-0.033,0.42H408.126L408.126,349.224z M409.854,348.526
			c0.009-0.362-0.152-0.959-0.814-0.959c-0.613,0-0.872,0.558-0.912,0.959H409.854z"/>
		<path fill="#999999" d="M412.811,345.969v1.011h0.944v0.742h-0.944v1.734c0,0.477,0.13,0.727,0.509,0.727
			c0.186,0,0.274-0.017,0.388-0.048l0.016,0.759c-0.146,0.057-0.403,0.104-0.718,0.104c-0.363,0-0.67-0.129-0.855-0.331
			c-0.209-0.227-0.308-0.581-0.308-1.098v-1.85h-0.564v-0.742h0.564v-0.727L412.811,345.969z"/>
		<path fill="#999999" d="M415.242,346.979l0.412,1.783c0.089,0.42,0.178,0.848,0.25,1.274h0.016
			c0.081-0.429,0.21-0.863,0.323-1.269l0.509-1.791h0.807l0.492,1.744c0.121,0.459,0.227,0.887,0.315,1.314h0.016
			c0.064-0.428,0.153-0.855,0.258-1.314l0.437-1.744h0.977l-1.234,3.932h-0.92l-0.469-1.6c-0.121-0.41-0.209-0.783-0.298-1.259
			h-0.016c-0.081,0.484-0.187,0.872-0.299,1.259l-0.5,1.6h-0.929l-1.163-3.932h1.017V346.979z"/>
		<path fill="#999999" d="M424.408,348.907c0,1.443-1.018,2.091-2.02,2.091c-1.113,0-1.969-0.769-1.969-2.026
			c0-1.291,0.847-2.082,2.034-2.082C423.625,346.89,424.408,347.713,424.408,348.907z M421.445,348.946
			c0,0.761,0.373,1.332,0.977,1.332c0.564,0,0.961-0.557,0.961-1.348c0-0.613-0.273-1.315-0.953-1.315
			C421.728,347.615,421.445,348.294,421.445,348.946z"/>
		<path fill="#999999" d="M425.306,348.246c0-0.533-0.008-0.912-0.031-1.269h0.861l0.033,0.75h0.031
			c0.193-0.557,0.654-0.84,1.074-0.84c0.098,0,0.152,0.01,0.234,0.025v0.936c-0.082-0.016-0.17-0.031-0.291-0.031
			c-0.477,0-0.799,0.308-0.889,0.75c-0.016,0.09-0.031,0.193-0.031,0.308v2.034h-0.994v-2.663H425.306z"/>
		<path fill="#999999" d="M429.253,348.705h0.016c0.1-0.152,0.213-0.322,0.316-0.459l0.951-1.269h1.195l-1.453,1.605l1.662,2.325
			h-1.219l-1.129-1.735l-0.34,0.396v1.34h-0.992v-5.73h0.992V348.705L429.253,348.705z"/>
		<path fill="#999999" d="M433.615,345.881c0,0.3-0.217,0.532-0.564,0.532c-0.33,0-0.549-0.232-0.549-0.532
			c0-0.307,0.227-0.541,0.557-0.541C433.398,345.34,433.607,345.574,433.615,345.881z M432.558,350.909v-3.932h1v3.932H432.558z"/>
		<path fill="#999999" d="M434.707,348.147c0-0.45-0.008-0.83-0.033-1.17h0.871l0.049,0.59h0.025c0.168-0.308,0.596-0.68,1.25-0.68
			c0.688,0,1.396,0.445,1.396,1.688v2.333h-0.992v-2.221c0-0.563-0.211-0.992-0.752-0.992c-0.395,0-0.67,0.281-0.773,0.58
			c-0.033,0.091-0.041,0.211-0.041,0.324v2.309h-1V348.147z"/>
		<path fill="#999999" d="M442.966,350.336c0,0.823-0.17,1.412-0.582,1.784c-0.41,0.363-0.977,0.477-1.518,0.477
			c-0.5,0-1.033-0.104-1.371-0.314l0.217-0.75c0.252,0.145,0.67,0.299,1.146,0.299c0.646,0,1.131-0.34,1.131-1.188v-0.34h-0.018
			c-0.225,0.348-0.629,0.582-1.145,0.582c-0.979,0-1.672-0.808-1.672-1.922c0-1.292,0.84-2.074,1.783-2.074
			c0.598,0,0.951,0.291,1.139,0.613h0.016l0.041-0.523h0.863c-0.016,0.266-0.031,0.588-0.031,1.129V350.336L442.966,350.336z
			 M441.974,348.554c0-0.091-0.01-0.187-0.031-0.269c-0.105-0.363-0.389-0.638-0.809-0.638c-0.557,0-0.969,0.484-0.969,1.283
			c0,0.67,0.338,1.211,0.961,1.211c0.371,0,0.693-0.242,0.807-0.598c0.023-0.105,0.041-0.242,0.041-0.355V348.554z"/>
		<path fill="#999999" d="M445.908,345.541c0.371-0.063,0.928-0.113,1.502-0.113c0.783,0,1.314,0.13,1.678,0.438
			c0.299,0.25,0.469,0.63,0.469,1.09c0,0.702-0.477,1.179-0.982,1.364v0.022c0.387,0.146,0.621,0.525,0.758,1.05
			c0.17,0.68,0.314,1.309,0.428,1.519h-1.023c-0.082-0.161-0.211-0.604-0.363-1.283c-0.154-0.71-0.412-0.937-0.979-0.952h-0.5v2.235
			h-0.984v-5.369H445.908z M446.892,347.946h0.592c0.67,0,1.09-0.354,1.09-0.896c0-0.598-0.42-0.87-1.066-0.87
			c-0.314,0-0.516,0.022-0.613,0.047v1.719H446.892z"/>
		<path fill="#999999" d="M451.269,349.224c0.025,0.709,0.582,1.017,1.213,1.017c0.461,0,0.789-0.064,1.09-0.179l0.145,0.688
			c-0.338,0.137-0.807,0.25-1.371,0.25c-1.275,0-2.025-0.791-2.025-1.994c0-1.09,0.662-2.115,1.92-2.115
			c1.285,0,1.695,1.051,1.695,1.914c0,0.187-0.016,0.33-0.031,0.42H451.269L451.269,349.224z M452.998,348.526
			c0.008-0.362-0.154-0.959-0.816-0.959c-0.611,0-0.871,0.558-0.912,0.959H452.998z"/>
		<path fill="#999999" d="M454.767,349.997c0.229,0.138,0.654,0.281,1.01,0.281c0.438,0,0.631-0.178,0.631-0.436
			c0-0.267-0.162-0.404-0.646-0.572c-0.766-0.268-1.09-0.688-1.082-1.146c0-0.695,0.574-1.236,1.486-1.236
			c0.436,0,0.812,0.113,1.041,0.234l-0.193,0.703c-0.17-0.098-0.484-0.227-0.832-0.227c-0.355,0-0.549,0.17-0.549,0.412
			c0,0.25,0.186,0.37,0.688,0.549c0.709,0.258,1.041,0.621,1.049,1.203c0,0.709-0.559,1.233-1.6,1.233
			c-0.477,0-0.902-0.121-1.193-0.283L454.767,349.997z"/>
		<path fill="#999999" d="M458.966,349.224c0.025,0.709,0.582,1.017,1.211,1.017c0.461,0,0.791-0.064,1.09-0.179l0.146,0.688
			c-0.338,0.137-0.807,0.25-1.371,0.25c-1.275,0-2.027-0.791-2.027-1.994c0-1.09,0.662-2.115,1.922-2.115
			c1.283,0,1.695,1.051,1.695,1.914c0,0.187-0.016,0.33-0.033,0.42H458.966L458.966,349.224z M460.695,348.526
			c0.008-0.362-0.154-0.959-0.816-0.959c-0.613,0-0.871,0.558-0.912,0.959H460.695z"/>
		<path fill="#999999" d="M465.564,349.965c0,0.354,0.016,0.702,0.057,0.944h-0.896l-0.062-0.438h-0.025
			c-0.242,0.309-0.652,0.525-1.162,0.525c-0.791,0-1.234-0.573-1.234-1.17c0-0.994,0.881-1.494,2.334-1.486v-0.064
			c0-0.258-0.105-0.686-0.801-0.686c-0.387,0-0.791,0.121-1.057,0.291l-0.193-0.646c0.291-0.178,0.799-0.348,1.42-0.348
			c1.26,0,1.623,0.801,1.623,1.655v1.422H465.564z M464.595,348.987c-0.703-0.016-1.373,0.138-1.373,0.734
			c0,0.387,0.25,0.564,0.566,0.564c0.395,0,0.686-0.258,0.773-0.54c0.025-0.073,0.033-0.153,0.033-0.218V348.987L464.595,348.987z"
			/>
		<path fill="#999999" d="M466.695,348.246c0-0.533-0.008-0.912-0.031-1.269h0.863l0.031,0.75h0.033
			c0.193-0.557,0.654-0.84,1.074-0.84c0.096,0,0.152,0.01,0.232,0.025v0.936c-0.08-0.016-0.168-0.031-0.289-0.031
			c-0.479,0-0.801,0.308-0.891,0.75c-0.016,0.09-0.031,0.193-0.031,0.308v2.034h-0.992V348.246L466.695,348.246z"/>
		<path fill="#999999" d="M472.468,350.788c-0.209,0.097-0.621,0.21-1.111,0.21c-1.229,0-2.027-0.791-2.027-2.011
			c0-1.178,0.809-2.1,2.188-2.1c0.363,0,0.734,0.082,0.961,0.188l-0.178,0.742c-0.162-0.072-0.395-0.153-0.75-0.153
			c-0.76,0-1.211,0.558-1.203,1.274c0,0.809,0.525,1.269,1.203,1.269c0.348,0,0.588-0.072,0.783-0.153L472.468,350.788z"/>
		<path fill="#999999" d="M473.285,345.179h1.002v2.342h0.016c0.121-0.187,0.291-0.349,0.492-0.453
			c0.193-0.112,0.428-0.178,0.678-0.178c0.67,0,1.373,0.444,1.373,1.703v2.316h-0.992v-2.204c0-0.572-0.211-1-0.76-1
			c-0.387,0-0.662,0.258-0.766,0.558c-0.033,0.079-0.041,0.186-0.041,0.299v2.349h-1.002V345.179L473.285,345.179z"/>
		<path fill="#999999" d="M482.791,349.965c0,0.354,0.016,0.702,0.057,0.944h-0.896l-0.064-0.438h-0.023
			c-0.242,0.309-0.654,0.525-1.162,0.525c-0.791,0-1.234-0.573-1.234-1.17c0-0.994,0.879-1.494,2.332-1.486v-0.064
			c0-0.258-0.104-0.686-0.799-0.686c-0.389,0-0.791,0.121-1.059,0.291l-0.193-0.646c0.291-0.178,0.799-0.348,1.422-0.348
			c1.258,0,1.621,0.801,1.621,1.655V349.965L482.791,349.965z M481.822,348.987c-0.703-0.016-1.373,0.138-1.373,0.734
			c0,0.387,0.25,0.564,0.564,0.564c0.396,0,0.688-0.258,0.775-0.54c0.023-0.073,0.031-0.153,0.031-0.218v-0.541H481.822z"/>
		<path fill="#999999" d="M483.921,348.147c0-0.45-0.008-0.83-0.031-1.17h0.871l0.049,0.59h0.023c0.17-0.308,0.598-0.68,1.252-0.68
			c0.688,0,1.396,0.445,1.396,1.688v2.333h-0.994v-2.221c0-0.563-0.209-0.992-0.75-0.992c-0.396,0-0.67,0.281-0.775,0.58
			c-0.031,0.091-0.039,0.211-0.039,0.324v2.309h-1.002V348.147L483.921,348.147z"/>
		<path fill="#999999" d="M492.248,345.179v4.625c0,0.403,0.016,0.84,0.031,1.105h-0.889l-0.039-0.622h-0.018
			c-0.234,0.437-0.709,0.711-1.283,0.711c-0.936,0-1.678-0.799-1.678-2.011c-0.01-1.315,0.812-2.1,1.758-2.1
			c0.541,0,0.93,0.227,1.107,0.518h0.016v-2.229h0.994V345.179z M491.253,348.617c0-0.081-0.008-0.179-0.021-0.259
			c-0.092-0.389-0.404-0.702-0.857-0.702c-0.637,0-0.992,0.563-0.992,1.299c0,0.719,0.355,1.244,0.984,1.244
			c0.402,0,0.76-0.275,0.855-0.703c0.023-0.088,0.031-0.187,0.031-0.29V348.617z"/>
		<path fill="#999999" d="M498.232,348.496h-2.051v1.598h2.293v0.815h-3.285v-5.44h3.164v0.815h-2.172v1.404h2.051V348.496z"/>
		<path fill="#999999" d="M502.98,345.179v4.625c0,0.403,0.016,0.84,0.031,1.105h-0.887l-0.041-0.622h-0.016
			c-0.234,0.437-0.711,0.711-1.283,0.711c-0.939,0-1.68-0.799-1.68-2.011c-0.01-1.315,0.814-2.1,1.76-2.1
			c0.541,0,0.928,0.227,1.104,0.518h0.018v-2.229h0.994V345.179z M501.988,348.617c0-0.081-0.01-0.179-0.025-0.259
			c-0.088-0.389-0.402-0.702-0.854-0.702c-0.639,0-0.992,0.563-0.992,1.299c0,0.719,0.354,1.244,0.982,1.244
			c0.404,0,0.76-0.275,0.855-0.703c0.023-0.088,0.033-0.187,0.033-0.29V348.617L501.988,348.617z"/>
		<path fill="#999999" d="M507.648,349.729c0,0.47,0.016,0.855,0.031,1.18h-0.871l-0.049-0.598h-0.016
			c-0.17,0.281-0.559,0.687-1.26,0.687c-0.719,0-1.371-0.429-1.371-1.711v-2.31h0.99v2.14c0,0.653,0.211,1.073,0.734,1.073
			c0.396,0,0.654-0.282,0.76-0.532c0.031-0.089,0.057-0.193,0.057-0.308v-2.373h0.994V349.729L507.648,349.729z"/>
		<path fill="#999999" d="M511.695,350.788c-0.211,0.097-0.621,0.21-1.113,0.21c-1.229,0-2.027-0.791-2.027-2.011
			c0-1.178,0.809-2.1,2.189-2.1c0.363,0,0.732,0.082,0.961,0.188l-0.178,0.742c-0.162-0.072-0.396-0.153-0.75-0.153
			c-0.762,0-1.211,0.558-1.203,1.274c0,0.809,0.523,1.269,1.203,1.269c0.346,0,0.588-0.072,0.781-0.153L511.695,350.788z"/>
		<path fill="#999999" d="M515.562,349.965c0,0.354,0.018,0.702,0.057,0.944h-0.896l-0.064-0.438h-0.023
			c-0.242,0.309-0.652,0.525-1.162,0.525c-0.791,0-1.234-0.573-1.234-1.17c0-0.994,0.881-1.494,2.334-1.486v-0.064
			c0-0.258-0.105-0.686-0.799-0.686c-0.391,0-0.791,0.121-1.061,0.291l-0.193-0.646c0.291-0.178,0.801-0.348,1.422-0.348
			c1.26,0,1.623,0.801,1.623,1.655v1.422H515.562z M514.593,348.987c-0.701-0.016-1.371,0.138-1.371,0.734
			c0,0.387,0.25,0.564,0.564,0.564c0.396,0,0.686-0.258,0.775-0.54c0.023-0.073,0.031-0.153,0.031-0.218V348.987L514.593,348.987z"
			/>
		<path fill="#999999" d="M517.785,345.969v1.011h0.943v0.742h-0.943v1.734c0,0.477,0.129,0.727,0.508,0.727
			c0.186,0,0.275-0.017,0.389-0.048l0.018,0.759c-0.146,0.057-0.404,0.104-0.721,0.104c-0.361,0-0.67-0.129-0.854-0.331
			c-0.211-0.227-0.307-0.581-0.307-1.098v-1.85h-0.566v-0.742h0.566v-0.727L517.785,345.969z"/>
		<path fill="#999999" d="M520.621,345.881c0,0.3-0.219,0.532-0.566,0.532c-0.33,0-0.549-0.232-0.549-0.532
			c0-0.307,0.229-0.541,0.557-0.541C520.402,345.34,520.611,345.574,520.621,345.881z M519.562,350.909v-3.932h1v3.932H519.562z"/>
		<path fill="#999999" d="M525.447,348.907c0,1.443-1.018,2.091-2.018,2.091c-1.113,0-1.969-0.769-1.969-2.026
			c0-1.291,0.846-2.082,2.033-2.082C524.666,346.89,525.447,347.713,525.447,348.907z M522.486,348.946
			c0,0.761,0.369,1.332,0.977,1.332c0.564,0,0.961-0.557,0.961-1.348c0-0.613-0.273-1.315-0.953-1.315
			C522.767,347.615,522.486,348.294,522.486,348.946z"/>
		<path fill="#999999" d="M526.347,348.147c0-0.45-0.008-0.83-0.031-1.17h0.869l0.051,0.59h0.023c0.168-0.308,0.596-0.68,1.25-0.68
			c0.688,0,1.396,0.445,1.396,1.688v2.333h-0.992v-2.221c0-0.563-0.211-0.992-0.75-0.992c-0.396,0-0.67,0.281-0.775,0.58
			c-0.033,0.091-0.041,0.211-0.041,0.324v2.309h-1V348.147z"/>
	</g>
</g>
<radialGradient id="SVGID_1_" cx="659.3657" cy="-104.7168" r="27.6394" gradientTransform="matrix(1 0 0 -1 -286 220.2754)" gradientUnits="userSpaceOnUse">
	<stop  offset="0.1044" style="stop-color:#F7941E"/>
	<stop  offset="0.3007" style="stop-color:#F9B15A"/>
	<stop  offset="0.5494" style="stop-color:#FCD2A0"/>
	<stop  offset="0.7572" style="stop-color:#FDEAD4"/>
	<stop  offset="0.9134" style="stop-color:#FFF9F3"/>
	<stop  offset="1" style="stop-color:#FFFFFF"/>
</radialGradient>
<circle fill="url(#SVGID_1_)" cx="373.366" cy="324.992" r="27.639"/>
<linearGradient id="SVGID_2_" gradientUnits="userSpaceOnUse" x1="622.6206" y1="-130.2749" x2="652.6055" y2="-111.6636" gradientTransform="matrix(1 0 0 -1 -286 220.2754)">
	<stop  offset="0" style="stop-color:#FFFFFF"/>
	<stop  offset="1" style="stop-color:#92C5EB"/>
</linearGradient>
<path fill="url(#SVGID_2_)" d="M354.172,357.837c0,0,80.71-49.74,30.592-56.204C384.764,301.633,457.99,300.931,354.172,357.837z"/>
<linearGradient id="SVGID_3_" gradientUnits="userSpaceOnUse" x1="658.3667" y1="-143.0591" x2="654.5211" y2="-114.7935" gradientTransform="matrix(1 0 0 -1 -286 220.2754)">
	<stop  offset="0" style="stop-color:#FFFFFF"/>
	<stop  offset="1" style="stop-color:#2B3990"/>
</linearGradient>
<path opacity="0.7" fill="url(#SVGID_3_)" enable-background="new    " d="M352.623,313.474c0,0,17.061-57.642,32.312,48.856
	C384.934,362.33,372.325,235.435,352.623,313.474z"/>
<linearGradient id="SVGID_4_" gradientUnits="userSpaceOnUse" x1="703.6167" y1="-133.1104" x2="670.8847" y2="-119.5961" gradientTransform="matrix(1 0 0 -1 -286 220.2754)">
	<stop  offset="0" style="stop-color:#FFFFFF"/>
	<stop  offset="1" style="stop-color:#1C75BC"/>
</linearGradient>
<path opacity="0.7" fill="url(#SVGID_4_)" enable-background="new    " d="M421.058,339.16c0,0-91.841-39.199-82.458-2.361
	C338.6,336.799,307.538,287.763,421.058,339.16z"/>
<g>
	<g>
		<path fill="#27AAE1" d="M433.443,332.546c0,1.329-0.209,2.484-0.631,3.464c-0.42,0.98-0.984,1.791-1.695,2.433
			c-0.713,0.642-1.529,1.119-2.449,1.436c-0.922,0.314-1.896,0.473-2.922,0.473c-1.145,0-2.258-0.274-3.342-0.822
			c-1.084-0.549-2.025-1.266-2.817-2.151l2.764-2.205c0.443,0.443,0.963,0.822,1.559,1.138c0.594,0.316,1.229,0.473,1.906,0.473
			c1.189,0,2.162-0.326,2.922-0.979c0.758-0.653,1.137-1.61,1.137-2.87v-1.818c-0.559,0.607-1.236,1.102-2.029,1.486
			s-1.645,0.577-2.553,0.577c-1.191,0-2.17-0.231-2.939-0.698c-0.771-0.468-1.354-0.957-1.75-1.472
			c-0.258-0.325-0.468-0.641-0.631-0.944c-0.164-0.303-0.297-0.693-0.401-1.172c-0.105-0.478-0.182-1.091-0.229-1.836
			c-0.047-0.746-0.069-1.728-0.069-2.939c0-1.236,0.022-2.229,0.069-2.975c0.046-0.746,0.123-1.358,0.229-1.838
			c0.104-0.478,0.238-0.867,0.401-1.173c0.163-0.303,0.373-0.616,0.631-0.942c0.396-0.515,0.978-1.004,1.75-1.472
			c0.77-0.466,1.748-0.698,2.939-0.698c0.908,0,1.73,0.174,2.467,0.523c0.734,0.352,1.439,0.875,2.115,1.575v-1.892h3.57v17.32
			H433.443z M429.875,324.112c0-0.723-0.006-1.307-0.018-1.75c-0.014-0.441-0.041-0.811-0.088-1.102s-0.117-0.531-0.211-0.718
			s-0.221-0.385-0.385-0.595c-0.256-0.326-0.611-0.635-1.066-0.928c-0.455-0.291-1.033-0.438-1.732-0.438
			c-0.723,0-1.312,0.146-1.768,0.438c-0.453,0.293-0.811,0.602-1.066,0.928c-0.164,0.21-0.291,0.408-0.385,0.595
			s-0.164,0.427-0.211,0.718s-0.074,0.659-0.086,1.102c-0.014,0.443-0.02,1.027-0.02,1.75c0,0.699,0.006,1.271,0.02,1.716
			c0.012,0.442,0.039,0.812,0.086,1.103s0.117,0.53,0.211,0.717c0.094,0.188,0.221,0.386,0.385,0.596
			c0.256,0.326,0.613,0.636,1.066,0.928c0.455,0.291,1.045,0.438,1.768,0.438c0.699,0,1.277-0.146,1.732-0.438
			c0.455-0.292,0.811-0.602,1.066-0.928c0.164-0.21,0.291-0.408,0.385-0.596c0.094-0.187,0.164-0.426,0.211-0.717
			s0.074-0.658,0.088-1.103C429.869,325.384,429.875,324.812,429.875,324.112z"/>
		<path fill="#27AAE1" d="M447.439,319.459c-0.42-0.326-0.799-0.554-1.137-0.683c-0.34-0.129-0.742-0.192-1.207-0.192
			c-0.443,0-0.871,0.069-1.277,0.211c-0.408,0.14-0.775,0.361-1.104,0.664c-0.326,0.304-0.588,0.688-0.787,1.153
			c-0.197,0.469-0.297,1.027-0.297,1.681v10.673h-3.568v-17.74h3.568v1.891h0.07c1.119-1.4,2.658-2.1,4.619-2.1
			c0.723,0,1.387,0.121,1.992,0.366s1.18,0.577,1.717,0.997L447.439,319.459z"/>
		<path fill="#92C5EB" d="M462.275,332.966v-10.566c0-1.213-0.332-2.152-0.996-2.816c-0.666-0.665-1.5-0.998-2.502-0.998
			c-1.051,0-1.902,0.333-2.555,0.998c-0.654,0.664-0.98,1.604-0.98,2.816v10.566h-3.568v-17.74h3.568v1.891h0.07
			c1.119-1.4,2.658-2.1,4.619-2.1c0.699,0,1.398,0.135,2.1,0.401c0.699,0.269,1.33,0.659,1.889,1.172
			c0.562,0.515,1.021,1.154,1.383,1.925s0.543,1.656,0.543,2.659v11.792H462.275L462.275,332.966z"/>
		<path fill="#92C5EB" d="M473.158,325.442c0,1.47,0.389,2.566,1.172,3.289c0.781,0.724,1.801,1.084,3.061,1.084
			c0.678,0,1.359-0.15,2.049-0.455c0.688-0.303,1.301-0.723,1.838-1.26l2.588,2.205c-0.887,1.051-1.877,1.791-2.975,2.223
			c-1.098,0.433-2.238,0.646-3.43,0.646c-0.91,0-1.832-0.129-2.764-0.385c-0.934-0.256-1.779-0.723-2.537-1.4
			c-0.758-0.676-1.377-1.598-1.855-2.764c-0.477-1.166-0.717-2.659-0.717-4.479c0-1.728,0.223-3.172,0.666-4.34
			c0.441-1.166,1.014-2.104,1.713-2.816c0.701-0.711,1.482-1.219,2.346-1.521c0.861-0.303,1.727-0.455,2.59-0.455
			c0.979,0,1.912,0.176,2.799,0.524c0.887,0.351,1.662,0.853,2.328,1.505c0.664,0.652,1.193,1.439,1.592,2.361
			c0.395,0.922,0.596,1.955,0.596,3.098v2.939H473.158L473.158,325.442z M480.644,322.504c-0.047-1.354-0.42-2.38-1.117-3.08
			c-0.699-0.698-1.574-1.049-2.625-1.049s-1.926,0.351-2.623,1.049c-0.701,0.7-1.074,1.728-1.121,3.08H480.644z"/>
		<path fill="#92C5EB" d="M492.472,332.966c-1.26,0-2.293-0.379-3.098-1.138s-1.207-1.836-1.207-3.236v-10.637h-1.783v-2.729h1.783
			v-5.389h3.57v5.389h2.588v2.729h-2.588v10.321c0,0.49,0.098,0.834,0.297,1.031c0.197,0.199,0.52,0.299,0.963,0.299h1.328v3.358
			L492.472,332.966L492.472,332.966z"/>
	</g>
</g>
</svg>
